/vscmnt/brussel_pixiu_data/_data_brussel/112/vsc11236/PredSimResults/SUBJ07_Falisse2022/weightedWalking/worker_04.mot
version=1
nRows=4
nColumns=124
inDegrees=yes
endheader
                time	         pelvis_tilt	         pelvis_list	     pelvis_rotation	           pelvis_tx	           pelvis_ty	           pelvis_tz	       hip_flexion_r	     hip_adduction_r	      hip_rotation_r	        knee_angle_r	       ankle_angle_r	    subtalar_angle_r	         mtp_angle_r	       hip_flexion_l	     hip_adduction_l	      hip_rotation_l	        knee_angle_l	       ankle_angle_l	    subtalar_angle_l	         mtp_angle_l	    lumbar_extension	      lumbar_bending	     lumbar_rotation	          arm_flex_r	           arm_add_r	           arm_rot_r	        elbow_flex_r	          arm_flex_l	           arm_add_l	           arm_rot_l	        elbow_flex_l	glut_med1_r/activation	glut_med2_r/activation	glut_med3_r/activation	glut_min1_r/activation	glut_min2_r/activation	glut_min3_r/activation	semimem_r/activation	semiten_r/activation	bifemlh_r/activation	bifemsh_r/activation	    sar_r/activation	add_long_r/activation	add_brev_r/activation	add_mag1_r/activation	add_mag2_r/activation	add_mag3_r/activation	    tfl_r/activation	   pect_r/activation	   grac_r/activation	glut_max1_r/activation	glut_max2_r/activation	glut_max3_r/activation	iliacus_r/activation	  psoas_r/activation	quad_fem_r/activation	    gem_r/activation	   peri_r/activation	rect_fem_r/activation	vas_med_r/activation	vas_int_r/activation	vas_lat_r/activation	med_gas_r/activation	lat_gas_r/activation	 soleus_r/activation	tib_post_r/activation	flex_dig_r/activation	flex_hal_r/activation	tib_ant_r/activation	per_brev_r/activation	per_long_r/activation	per_tert_r/activation	ext_dig_r/activation	ext_hal_r/activation	glut_med1_l/activation	glut_med2_l/activation	glut_med3_l/activation	glut_min1_l/activation	glut_min2_l/activation	glut_min3_l/activation	semimem_l/activation	semiten_l/activation	bifemlh_l/activation	bifemsh_l/activation	    sar_l/activation	add_long_l/activation	add_brev_l/activation	add_mag1_l/activation	add_mag2_l/activation	add_mag3_l/activation	    tfl_l/activation	   pect_l/activation	   grac_l/activation	glut_max1_l/activation	glut_max2_l/activation	glut_max3_l/activation	iliacus_l/activation	  psoas_l/activation	quad_fem_l/activation	    gem_l/activation	   peri_l/activation	rect_fem_l/activation	vas_med_l/activation	vas_int_l/activation	vas_lat_l/activation	med_gas_l/activation	lat_gas_l/activation	 soleus_l/activation	tib_post_l/activation	flex_dig_l/activation	flex_hal_l/activation	tib_ant_l/activation	per_brev_l/activation	per_long_l/activation	per_tert_l/activation	ext_dig_l/activation	ext_hal_l/activation	 ercspn_r/activation	 ercspn_l/activation	 intobl_r/activation	 intobl_l/activation	 extobl_r/activation	 extobl_l/activation	
          0.00000000	         -9.64852943	         -2.16737214	          3.70733662	          0.00000000	          0.84164087	         -0.00544734	         36.68716323	          2.93615289	          1.12976222	         -9.75965329	         13.88980717	         -7.61026010	          0.23192484	        -11.98490726	          0.16928132	          9.97230963	         -5.78699936	          3.08811370	         -2.44421349	         32.16451883	         -1.80859786	          0.33002232	         -1.85728154	        -17.58041000	        -13.77978926	         17.07442635	         14.45531946	         24.47485580	        -13.46295385	         19.37091165	         73.29838693	          0.04588138	          0.01188237	          0.01000009	          0.12223339	          0.01188263	          0.01188234	          0.17045657	          0.02711040	          0.03423001	          0.01188235	          0.01939596	          0.03631706	          0.17647603	          0.14572604	          0.15668568	          0.10575999	          0.01000063	          0.01987993	          0.06905033	          0.01188238	          0.01000003	          0.06707571	          0.02165439	          0.02060393	          0.28284790	          0.01000008	          0.01000007	          0.01000012	          0.16034536	          0.16054031	          0.13486732	          0.00999999	          0.01000000	          0.00999999	          0.01188240	          0.01000019	          0.01000009	          0.41412034	          0.21805871	          0.15278172	          0.35562203	          0.49123606	          0.14788018	          0.07024436	          0.07398395	          0.07552128	          0.13485400	          0.11910439	          0.11076848	          0.01000008	          0.01000003	          0.01000002	          0.03704171	          0.06972403	          0.07396252	          0.04030397	          0.01298565	          0.01000081	          0.01000006	          0.21221151	          0.05797623	          0.01993511	          0.02184264	          0.01680225	          0.01000119	          0.25780187	          0.41112166	          0.02368748	          0.02368885	          0.11333145	          0.12199122	          0.01000015	          0.01000015	          0.01000015	          0.25518037	          0.34202616	          0.31586848	          0.30547836	          0.38711193	          0.39121916	          0.01000000	          0.01000002	          0.01000000	          0.01000003	          0.01000000	          0.01000006	          0.04844805	          0.02111588	          0.02227731	          0.01313565	          0.07862345	          0.01000000	
          0.01129428	         -9.63552647	         -2.43798773	          4.01447515	          0.01671617	          0.84001168	         -0.00519921	         36.08865046	          3.30983267	          1.35350084	        -10.35465851	         12.93442910	         -8.00898048	          0.22781193	        -11.84738290	         -0.11592956	          9.56978802	         -8.08228149	          2.85179514	         -1.86266597	         33.42283796	         -1.69602247	          0.83011419	         -1.90137906	        -18.82999122	        -13.79108093	         17.09241971	         14.30445268	         24.18867877	        -13.48268715	         19.32977934	         75.64474758	          0.03861297	          0.01000002	          0.01000004	          0.10286946	          0.01000022	          0.01000003	          0.14345322	          0.02281564	          0.02880737	          0.01000000	          0.01632331	          0.03056384	          0.14956178	          0.14727146	          0.13186401	          0.09652238	          0.01000008	          0.01673116	          0.05811163	          0.01000015	          0.10505452	          0.08100656	          0.01822395	          0.01733990	          0.23803981	          0.02185179	          0.01000007	          0.01188247	          0.13494409	          0.13510804	          0.11350210	          0.01802370	          0.01909731	          0.01897142	          0.01000002	          0.01411909	          0.01411923	          0.34851632	          0.25307296	          0.16298736	          0.29928519	          0.41341555	          0.12445334	          0.05911651	          0.06226358	          0.06355737	          0.11349093	          0.10023615	          0.09322079	          0.02546042	          0.01654034	          0.02001458	          0.03117364	          0.05867852	          0.11453103	          0.03525001	          0.06166749	          0.02062103	          0.06667063	          0.17859344	          0.04879195	          0.01677709	          0.01838243	          0.01414054	          0.01000143	          0.21696147	          0.34599268	          0.01993497	          0.01993613	          0.09537774	          0.10266564	          0.01000018	          0.01000019	          0.01000015	          0.21475526	          0.28784314	          0.30302221	          0.27726219	          0.33880055	          0.35343698	          0.01000001	          0.01000002	          0.01000002	          0.01000003	          0.01000001	          0.01000007	          0.04077302	          0.04266626	          0.01874819	          0.01411905	          0.06616810	          0.01000017	
          0.02258856	         -9.61933933	         -2.70133234	          4.30119565	          0.03354948	          0.83841206	         -0.00493712	         35.38223633	          3.65349178	          1.60381707	        -11.02085572	         12.15597227	         -8.40389348	          0.22029274	        -11.56879726	         -0.38684583	          9.13752079	        -10.63077597	          2.53873736	         -1.29597569	         34.43939427	         -1.57851950	          1.32967754	         -1.93660951	        -19.96988827	        -13.79118595	         17.25540746	         14.10743429	         23.79172829	        -13.50314498	         19.27002283	         77.84087904	          0.16302783	          0.19542962	          0.22138733	          0.09418423	          0.12861541	          0.10975743	          0.12072768	          0.07012925	          0.04928056	          0.04569392	          0.01373745	          0.02572200	          0.12586855	          0.12394109	          0.11097446	          0.09008652	          0.01000023	          0.01408087	          0.10251807	          0.13993238	          0.12029428	          0.06817372	          0.01533696	          0.01459296	          0.20033022	          0.01839042	          0.10699573	          0.01000008	          0.11356655	          0.11370453	          0.09552136	          0.01516842	          0.01607196	          0.01596601	          0.01188238	          0.01188240	          0.01188251	          0.48053013	          0.35371895	          0.19575648	          0.42052520	          0.53366074	          0.24790228	          0.14566711	          0.05239993	          0.05348875	          0.13354627	          0.08435698	          0.07845296	          0.02143347	          0.01392011	          0.01684394	          0.02623519	          0.04938281	          0.09638731	          0.11733518	          0.05189838	          0.01735484	          0.05610887	          0.15030109	          0.04106259	          0.01411936	          0.01547038	          0.01190052	          0.01000023	          0.18259092	          0.29118129	          0.01677692	          0.01677791	          0.08026821	          0.08640158	          0.01000040	          0.01000042	          0.01000055	          0.18073421	          0.24224367	          0.27654435	          0.25905691	          0.31686209	          0.32291322	          0.01000001	          0.01000003	          0.01000001	          0.01000005	          0.01000001	          0.01000010	          0.06771175	          0.05303424	          0.01577819	          0.01188234	          0.05568590	          0.01000000	
          0.03388285	         -9.60250917	         -2.94933766	          4.56636794	          0.05027615	          0.83700766	         -0.00463161	         34.63264776	          3.99382735	          1.85445683	        -11.60717768	         11.38627791	         -8.79394642	          0.21277504	        -11.11694703	         -0.64286794	          8.70432369	        -13.44324723	          2.13957358	         -0.73015801	         35.06665841	         -1.47256726	          1.81707441	         -1.96400862	        -20.94095670	        -13.76980241	         17.55044753	         13.83539704	         23.32413611	        -13.52236114	         19.20650713	         79.81144551	          0.24670032	          0.30468476	          0.33768552	          0.08420278	          0.10845734	          0.19198474	          0.10160227	          0.06436186	          0.04430201	          0.03845520	          0.01156121	          0.02164719	          0.10592876	          0.11421453	          0.12471165	          0.10524802	          0.01000007	          0.01185058	          0.08627996	          0.20868994	          0.15868803	          0.10626061	          0.01290731	          0.01228118	          0.19240528	          0.01547722	          0.09997379	          0.01000001	          0.11436022	          0.11517121	          0.10354368	          0.01276548	          0.01352588	          0.01343671	          0.01000000	          0.01000005	          0.01000013	          0.53611135	          0.33249109	          0.17533758	          0.51782549	          0.55045798	          0.29756804	          0.12259104	          0.04409885	          0.04501518	          0.17147591	          0.07099335	          0.06602463	          0.04157560	          0.01424010	          0.01417566	          0.02207907	          0.04155970	          0.08112745	          0.18513752	          0.04367708	          0.05226421	          0.04722029	          0.12649075	          0.03455766	          0.01188266	          0.01301966	          0.01001551	          0.01003929	          0.15366527	          0.24505300	          0.01411916	          0.01412001	          0.06755230	          0.07271404	          0.02708196	          0.02661609	          0.01746311	          0.15210270	          0.20386796	          0.25415365	          0.23355975	          0.26796205	          0.29397440	          0.01000010	          0.01000007	          0.01000047	          0.01000016	          0.01000006	          0.01000041	          0.08758368	          0.07613682	          0.01327867	          0.01000000	          0.04686426	          0.01000000	
